<svg xmlns="http://www.w3.org/2000/svg" version="1.1" xmlns:xlink="http://www.w3.org/1999/xlink" xmlns:svgjs="http://svgjs.com/svgjs" height="70.97999572753906" width="258.25"><defs id="SvgjsDefs2366"></defs><g id="SvgjsG2367" rel="mainfill" name="main_text" xmlns:name="main_text" transform="translate(-0.940000057220459,-181.97000122070312)" fill="#ffffff"><path d="M0.94 240L12.59 240C15.40 240 17.78 237.31 17.78 234.18L17.78 219.46C17.78 217.96 16.72 216.58 15.47 215.52C16.72 214.45 17.78 213.07 17.78 211.57L17.78 201.05C17.78 197.92 15.40 195.23 12.59 195.23L0.94 195.23ZM8.39 236.24L8.39 217.39L9.39 217.39C9.83 217.39 10.33 217.89 10.33 218.27L10.33 235.37C10.33 235.74 9.83 236.24 9.39 236.24ZM8.39 213.64L8.39 198.98L9.39 198.98C9.83 198.98 10.33 199.48 10.33 199.86L10.33 212.76C10.33 213.14 9.83 213.64 9.39 213.64ZM19.54 235.62C19.54 238.25 21.60 240.56 23.92 240.56L24.48 240.56C25.99 240.56 27.43 239.75 28.30 238.62L28.68 240L34.82 240L34.82 202.11L27.99 202.11L27.99 236.74C27.93 237.12 27.62 237.37 27.24 237.37L27.11 237.37C26.74 237.37 26.36 236.99 26.36 236.62L26.36 202.11L19.54 202.11ZM43.21 244.95L47.09 244.95L47.09 239.81C50.66 239.25 53.48 236.31 53.48 231.86L53.48 222.78C53.48 219.59 52.10 217.83 50.22 216.64L44.90 212.95C44.34 212.63 44.02 212.07 44.02 211.45L44.02 199.74C44.15 199.36 44.52 198.98 44.96 198.98L45.09 198.98C45.53 198.98 45.96 199.42 45.96 199.86L45.96 211.01L53.48 211.01L53.48 201.05C53.48 198.29 50.66 195.73 47.09 195.29L47.09 189.97L43.21 189.97L43.21 195.35C39.51 195.85 36.57 198.73 36.57 203.30L36.57 211.76C36.57 214.14 37.51 216.58 39.70 217.89L45.21 221.84C45.71 222.15 45.96 222.78 45.96 223.28L45.96 235.43C45.90 235.74 45.53 236.12 45.09 236.12L44.96 236.12C44.52 236.12 44.02 235.68 44.02 235.24L44.02 223.97L36.57 223.97L36.57 234.05C36.57 236.99 39.45 239.56 43.21 239.94ZM55.23 240L62.06 240L62.06 202.11L55.23 202.11ZM55.17 200.67L61.99 200.67L61.99 195.23L55.17 195.23ZM63.68 240L70.51 240L70.51 205.37C70.57 205.06 70.89 204.74 71.26 204.74L71.39 204.74C71.76 204.74 72.14 205.12 72.14 205.50L72.14 240L78.96 240L78.96 206.50C78.96 203.87 76.90 201.55 74.58 201.55L74.02 201.55C72.45 201.55 71.01 202.37 70.20 203.55L69.82 202.11L63.68 202.11ZM80.59 235.05C80.59 237.68 82.85 240 85.23 240L91.49 240C93.81 240 95.87 237.68 95.87 235.05L95.87 224.72L89.05 224.72L89.05 236.05C89.05 236.43 88.67 236.81 88.29 236.81L88.17 236.81C87.73 236.81 87.42 236.43 87.42 236.05L87.42 222.15L95.87 222.15L95.87 207.06C95.87 204.43 93.81 202.11 91.49 202.11L85.23 202.11C82.85 202.11 80.59 204.43 80.59 207.06ZM87.42 219.52L87.42 206.06C87.42 205.68 87.73 205.31 88.17 205.31L88.29 205.31C88.67 205.31 89.05 205.68 89.05 206.06L89.05 219.52ZM97.50 235.37C97.50 238.00 100.32 240.31 103.76 240.31L106.27 240.31C109.77 240.31 112.78 237.68 112.78 233.49L112.78 225.47C112.78 222.78 111.65 221.34 110.02 220.34L105.01 217.21C104.58 216.96 104.33 216.45 104.33 215.95L104.33 205.68C104.39 205.37 104.70 205.06 105.08 205.06L105.20 205.06C105.58 205.06 105.95 205.43 105.95 205.81L105.95 215.58L112.78 215.58L112.78 206.81C112.78 204.18 109.96 201.86 106.52 201.86L104.01 201.86C100.51 201.86 97.50 204.49 97.50 208.69L97.50 216.20C97.50 218.21 98.31 220.27 100.13 221.40L105.33 224.72C105.70 224.97 105.95 225.47 105.95 225.91L105.95 236.49C105.89 236.81 105.58 237.12 105.20 237.12L105.08 237.12C104.70 237.12 104.33 236.74 104.33 236.37L104.33 226.47L97.50 226.47ZM114.41 235.37C114.41 238.00 117.23 240.31 120.67 240.31L123.17 240.31C126.68 240.31 129.69 237.68 129.69 233.49L129.69 225.47C129.69 222.78 128.56 221.34 126.93 220.34L121.92 217.21C121.48 216.96 121.23 216.45 121.23 215.95L121.23 205.68C121.30 205.37 121.61 205.06 121.98 205.06L122.11 205.06C122.49 205.06 122.86 205.43 122.86 205.81L122.86 215.58L129.69 215.58L129.69 206.81C129.69 204.18 126.87 201.86 123.42 201.86L120.92 201.86C117.41 201.86 114.41 204.49 114.41 208.69L114.41 216.20C114.41 218.21 115.22 220.27 117.04 221.40L122.24 224.72C122.61 224.97 122.86 225.47 122.86 225.91L122.86 236.49C122.80 236.81 122.49 237.12 122.11 237.12L121.98 237.12C121.61 237.12 121.23 236.74 121.23 236.37L121.23 226.47L114.41 226.47ZM131.44 240L138.89 240L138.89 215.58L139.08 215.58L140.21 221.65L141.27 240L147.10 240L148.10 221.84L149.29 215.58L149.47 215.58L149.47 240L156.93 240L156.93 195.23L147.28 195.23L144.21 217.77L141.15 195.23L131.44 195.23ZM158.18 240L165.32 240L165.76 233.24L169.76 233.24L170.26 240L177.40 240L172.46 195.23L163.13 195.23ZM166.19 227.60L167.63 206.94L167.89 206.94L169.33 227.60ZM178.22 240L185.98 240L188.49 225.22L191.12 240L198.88 240L193.31 217.71L198.88 195.23L191.12 195.23L188.49 209.75L185.98 195.23L178.22 195.23L183.79 217.71ZM200.26 240L207.09 240L207.09 232.80L200.26 232.80ZM208.78 240L215.60 240L215.60 202.11L208.78 202.11ZM208.71 200.67L215.54 200.67L215.54 195.23L208.71 195.23ZM217.23 240L224.06 240L224.06 205.37C224.12 205.06 224.43 204.74 224.81 204.74L224.93 204.74C225.31 204.74 225.68 205.12 225.68 205.50L225.68 240L232.51 240L232.51 206.50C232.51 203.87 230.44 201.55 228.13 201.55L227.56 201.55C226.00 201.55 224.56 202.37 223.74 203.55L223.37 202.11L217.23 202.11ZM234.76 240L241.59 240L241.59 206.50L243.09 206.50L243.09 202.11L241.59 202.11L241.59 201.43C241.59 201.05 241.90 200.67 242.34 200.67L243.09 200.67L243.09 195.23L239.40 195.23C237.02 195.23 234.76 197.54 234.76 200.17L234.76 202.11L233.32 202.11L233.32 206.50L234.76 206.50ZM243.91 235.05C243.91 237.68 246.16 240 248.54 240L254.80 240C257.12 240 259.19 237.68 259.19 235.05L259.19 207.06C259.19 204.43 257.12 202.11 254.80 202.11L248.54 202.11C246.16 202.11 243.91 204.43 243.91 207.06ZM251.48 236.31C251.05 236.31 250.73 235.93 250.73 235.55L250.73 206.06C250.73 205.68 251.05 205.31 251.48 205.31L251.61 205.31C251.98 205.31 252.36 205.68 252.36 206.06L252.36 235.55C252.36 235.93 251.98 236.31 251.61 236.31Z" fill="#ffffff" style="fill: rgb(255, 255, 255);"></path></g></svg>