<svg xmlns="http://www.w3.org/2000/svg" version="1.1" xmlns:xlink="http://www.w3.org/1999/xlink" xmlns:svgjs="http://svgjs.com/svgjs" height="41.43000793457031" width="258.9700012207031"><defs id="SvgjsDefs4260"></defs><g id="SvgjsG4261" rel="mainfill" name="main_text" xmlns:name="main_text" transform="translate(0,-212.80999755859375)" fill="#ffffff"><path d="M0.02 221.35L8.79 221.35L10.43 221.58L11.12 221.83L11.93 222.24L12.46 222.66L12.89 223.14L13.12 223.55L13.30 223.98L13.48 224.74L13.53 225.63L13.46 226.17L13.07 227.34L12.69 227.88L11.91 228.66L10.98 229.29L9.89 229.74L9.93 229.79L11.19 230.08L12.73 230.73L13.64 231.37L14.08 231.86L14.49 232.69L14.70 233.41L14.79 234.24L14.77 235.44L14.64 236.23L14.41 236.93L14.11 237.56L13.21 238.53L12.65 238.88L11.10 239.51L8.76 239.96L0.07 240Q0 239.90 0 239.75L0.02 238.96L0.72 238.92L0.99 238.86L1.44 238.71L1.78 238.44L1.99 238.03L2.16 237.25L2.22 236.40L2.16 224.13L1.99 223.37L1.78 222.96L1.63 222.81L1.42 222.70L0.99 222.52L0 222.43L0 221.63L0.02 221.35M5.70 222.71L5.70 229.45L6.15 229.45L7.36 229.29L8.41 228.90L9.06 228.53L9.41 228.19L9.70 227.77L9.91 227.27L10.04 226.71L10.09 226.07L10.04 225.08L9.98 224.79L9.79 224.29L9.66 224.06L9.36 223.66L8.75 223.23L8.30 222.98L7.77 222.81L7.18 222.71L5.70 222.71M5.70 230.74L5.70 236.44L5.78 237.27L5.94 237.96L6.10 238.22L6.33 238.42L6.61 238.56L7.33 238.67L7.77 238.67L8.53 238.58L9.15 238.37L9.70 238.09L9.95 237.89L10.36 237.48L10.55 237.23L10.98 236.40L11.08 236.08L11.21 235.36L11.23 234.96L11.08 233.43L10.87 232.79L10.57 232.24L10.38 232.01L9.95 231.61L9.41 231.29L8.51 230.93L6.65 230.69L5.70 230.74ZM16.41 221.40L23.93 221.40L23.91 222.44L23.21 222.44L22.63 222.54L22.32 222.71L22.10 222.95L22.01 223.09L21.84 223.63L21.75 224.46L21.77 233.27L21.98 234.93L22.18 235.66L22.65 236.57L23.05 237.11L23.55 237.55L24.12 237.92L25.11 238.31L25.86 238.48L27.43 238.43L28.75 238.14L29.39 237.84L29.94 237.46L30.38 236.98L30.81 236.23L31.24 235.06L31.72 232.27L31.78 225.13L31.69 224.06L31.50 223.32L31.34 223.02L31.21 222.90L30.79 222.64L30.43 222.52L29.60 222.42L29.60 221.47L29.64 221.40L35.52 221.40Q35.62 221.42 35.63 221.53L35.63 222.23L35.59 222.44L35.13 222.44L34.73 222.49L34.40 222.62L34.12 222.80L33.92 223.06L33.77 223.39L33.68 223.76L33.57 224.81L33.40 234.17L33.07 235.73L32.50 236.99L31.76 237.89L30.84 238.60L28.54 239.55L25.73 240L24.57 239.98L23.19 239.74L21.49 239.12L20.47 238.51L19.64 237.72L19.09 236.87L18.81 236.20L18.52 235.11L18.38 234.09L18.35 224.81L18.27 223.94L18.14 223.39L18.02 223.04L17.81 222.78L17.52 222.62L16.78 222.44L16.43 222.44L16.41 222.33L16.41 221.40ZM41.83 221.40L42.80 221.40L42.80 222.84Q43.17 222.84 43.68 222.88Q44.19 222.92 44.71 223.02Q45.62 223.19 46.41 223.61Q47.21 224.04 47.28 224.88L47.28 224.90Q47.28 225.13 47.02 225.33Q46.76 225.54 46.44 225.67Q46.24 225.75 46.06 225.79Q45.89 225.84 45.76 225.84Q45.55 225.84 45.31 225.55Q45.08 225.25 44.73 224.90Q44.41 224.56 43.93 224.26Q43.46 223.96 42.80 223.96L42.80 229.46Q43.02 229.61 43.25 229.74Q43.49 229.88 43.71 230.03Q45.10 230.87 46.26 232.00Q47.42 233.12 47.42 234.94Q47.42 236.22 46.78 237.38Q46.14 238.53 45.05 239.22Q44.55 239.54 43.97 239.70Q43.39 239.87 42.80 239.99L42.80 241.69L41.83 241.69L41.83 240.01Q41.46 239.99 40.83 239.93Q40.19 239.87 39.50 239.72Q38.48 239.54 37.64 239.09Q36.80 238.63 36.80 237.86Q36.80 237.58 37.05 237.34Q37.30 237.10 37.59 236.94Q37.77 236.87 37.92 236.82Q38.07 236.77 38.19 236.77Q38.26 236.77 38.33 236.79Q38.39 236.82 38.46 236.85Q38.68 236.97 38.93 237.24Q39.18 237.51 39.50 237.81Q39.89 238.21 40.45 238.54Q41.01 238.88 41.83 238.88L41.83 232.71Q41.64 232.58 41.43 232.46Q41.23 232.33 41.03 232.21Q39.80 231.44 38.77 230.42Q37.75 229.39 37.69 227.80Q37.69 225.91 38.88 224.65Q40.07 223.39 41.83 222.97L41.83 221.40L41.83 221.40M42.80 238.70Q43.66 238.43 44.17 237.69Q44.67 236.94 44.67 236.05Q44.67 235.16 44.12 234.45Q43.56 233.75 42.80 233.35L42.80 238.70L42.80 238.70M41.83 224.20Q41.11 224.43 40.70 225.06Q40.30 225.70 40.30 226.43Q40.30 227.20 40.74 227.82Q41.19 228.44 41.83 228.82L41.83 224.20L41.83 224.20ZM48.19 221.35L55.93 221.35L55.95 222.31Q55.93 222.41 55.82 222.43L55.14 222.47L54.57 222.62L54.27 222.81L54.16 222.93L54.00 223.26L53.91 223.64L53.81 224.51L53.81 236.78L53.96 237.84L54.18 238.35L54.39 238.60L54.55 238.69L55.10 238.88L55.76 238.94L55.95 238.99L55.95 239.96L55.76 239.98L48.24 240L48.19 239.81L48.19 239.08Q48.20 238.97 48.31 238.94L48.76 238.92L49.36 238.79L49.80 238.53L50.01 238.24L50.21 237.73L50.31 237.11L50.31 224.77L50.26 224.12L50.12 223.53L49.91 223.02L49.66 222.77L49.36 222.59L48.79 222.45L48.33 222.43Q48.22 222.42 48.19 222.31L48.19 221.35ZM58.03 221.41L63.06 221.45L63.32 221.41L63.48 221.55L74.71 234.48L74.76 234.27L74.69 224.43L74.55 223.71L74.37 223.30L74.13 222.96L73.77 222.73L73.33 222.58L72.46 222.49L72.46 221.43L72.55 221.41L78.60 221.41L78.65 221.67L78.65 222.49L77.74 222.52L77.49 222.58L77.31 222.68L77.01 222.95L76.78 223.30L76.70 223.51L76.57 224.26L76.42 240.12Q76.32 240.20 76.19 240.21L75.04 240.21L74.89 240.07L61.97 225.09L62.19 237.17L62.34 237.90L62.50 238.32L62.63 238.49L62.78 238.62L64.20 238.96L64.23 239.20L64.23 240.01L58.79 239.96L58.08 240.01L58.03 239.96L58.03 238.96L58.75 238.90L59.21 238.79L59.58 238.58L59.85 238.28L60.06 237.88L60.17 237.43L60.26 225.28L60.22 224.17L60.08 223.46L59.98 223.25L59.72 222.95L59.32 222.73L58.89 222.61L58.03 222.49L58.03 221.41ZM90.84 221.50L95.91 222.62L96.00 222.82L96.53 227.08L96.32 227.17L95.61 227.29L95.45 227.17L95.05 226.17L93.90 224.49L92.81 223.62L91.61 223.12L90.41 222.93L88.53 222.98L87.62 223.20L87.02 223.43L86.29 223.86L85.68 224.35L84.67 225.60L83.90 227.10L83.42 228.84L83.30 230.85L83.61 230.92L84.16 230.93L84.40 230.90L89.18 228.92L89.42 228.88L90.22 228.93L90.66 229.07L91.04 229.24L91.52 229.61L91.99 230.26L92.12 230.70L92.17 231.21L92.08 231.68L91.90 232.06L91.35 232.65L90.84 233.00L90.75 232.83L90.84 232.69L91.32 232.30L91.55 231.97L91.61 231.75L91.57 231.52L91.40 231.39L91.21 231.32L90.77 231.27L90.50 231.34L87.09 232.72L86.20 232.96L85.95 233.00L85.15 233.00L84.43 232.85L83.52 232.45L83.51 232.50L83.95 234.05L84.67 235.56L85.47 236.72L86.04 237.31L87.04 237.98L88.05 238.36L89.02 238.53L90.14 238.55L91.13 238.42L92.01 238.16L92.94 237.69L93.57 237.20L94.61 236.00L95.47 234.31L95.69 233.58L96.54 233.75L96.72 233.82L95.95 238.38L93.50 239.33L90.15 239.93L88.00 239.95L85.87 239.53L84.67 239.04L82.81 237.80L81.45 236.36L80.86 235.53L80.30 234.40L79.78 232.40L79.68 230.50L79.85 228.99L80.45 227.04L81.13 225.77L81.87 224.80L83.34 223.46L84.89 222.47L86.96 221.72L88.91 221.45L90.84 221.50ZM105.35 221.19L107.19 221.44L108.17 221.72Q108.32 221.81 108.33 221.99L108.89 225.48L107.63 225.77L107.57 225.55L106.78 223.86L106.41 223.37L105.99 222.96L105.43 222.68L104.75 222.52L104.17 222.48L103.59 222.53L102.94 222.72L102.41 223.03L101.96 223.40L101.60 223.90L101.38 224.49L101.32 225.06L101.39 225.62L101.49 225.95L101.63 226.23L101.97 226.71L103.39 227.82L106.28 229.52L108.11 231.05L108.84 231.99L109.11 232.55L109.37 233.56L109.44 234.73L109.37 235.52L109.10 236.49L108.82 237.05L108.08 237.99L106.63 239.06L105.16 239.67L104.14 239.91L102.55 240L101.03 239.83L98.77 239.18Q98.63 239.10 98.58 238.93L97.64 234.92L97.71 234.92L99.02 234.55L99.62 236.06L100.22 237.13L100.76 237.84L101.24 238.21L101.80 238.48L102.47 238.64L103.25 238.69L104.00 238.60L104.65 238.40L105.41 237.93L105.84 237.51L106.03 237.27L106.30 236.73L106.46 236.04L106.42 235.26L106.25 234.61L105.91 234.08L105.52 233.66L104.58 232.94L100.96 230.69L99.78 229.76L99.36 229.35L98.89 228.56L98.65 227.95L98.48 226.45L98.53 225.68L98.78 224.68L99.20 223.83L99.96 222.92L100.95 222.23L102.38 221.58L103.37 221.32L105.35 221.19ZM118.88 221.19L120.72 221.44L121.69 221.72Q121.85 221.81 121.86 221.99L122.42 225.48L121.15 225.77L121.10 225.55L120.30 223.86L119.94 223.37L119.51 222.96L118.95 222.68L118.28 222.52L117.70 222.48L117.12 222.53L116.46 222.72L115.93 223.03L115.49 223.40L115.13 223.90L114.91 224.49L114.85 225.06L114.92 225.62L115.01 225.95L115.16 226.23L115.50 226.71L116.92 227.82L119.80 229.52L121.64 231.05L122.37 231.99L122.64 232.55L122.89 233.56L122.97 234.73L122.89 235.52L122.63 236.49L122.35 237.05L121.61 237.99L120.16 239.06L118.68 239.67L117.67 239.91L116.08 240L114.56 239.83L112.29 239.18Q112.16 239.10 112.11 238.93L111.16 234.92L111.24 234.92L112.54 234.55L113.14 236.06L113.75 237.13L114.29 237.84L114.76 238.21L115.32 238.48L116.00 238.64L116.77 238.69L117.52 238.60L118.18 238.40L118.93 237.93L119.37 237.51L119.55 237.27L119.82 236.73L119.99 236.04L119.95 235.26L119.77 234.61L119.44 234.08L119.05 233.66L118.10 232.94L114.48 230.69L113.31 229.76L112.89 229.35L112.42 228.56L112.18 227.95L112.00 226.45L112.06 225.68L112.30 224.68L112.73 223.83L113.49 222.92L114.47 222.23L115.90 221.58L116.90 221.32L118.88 221.19ZM125.26 221.35L130.40 221.35L132.78 226.56L132.90 226.79L136.79 234.77L136.87 234.87L143.13 221.35L147.05 221.44L148.29 221.35L148.31 222.43L147.45 222.47L146.85 222.58L146.37 222.82L146.22 223.03L146.11 223.28L145.97 223.87L145.90 224.88L146.25 236.72L146.39 237.66L146.58 238.21L146.71 238.41L146.90 238.58L147.15 238.69L147.70 238.86L148.47 238.97L148.47 240L140.63 240L140.63 238.96L141.66 238.79L142.17 238.58L142.37 238.41L142.51 238.21L142.60 237.94L142.66 237.64L142.74 234.89L142.72 226.63L136.32 240L135.60 240L135.45 239.79L129.12 226.69L129.07 226.86L128.78 237.29L129.00 238.12L129.14 238.35L129.31 238.54L129.78 238.79L130.37 238.92L130.72 238.94Q130.87 238.94 130.90 239.11L130.90 240L126.16 239.89L124.69 240L124.69 238.96L124.94 238.96L125.54 238.85L125.81 238.76L126.04 238.62L126.22 238.44L126.59 237.73L126.66 237.45L127.42 225.27L127.40 223.85L127.23 223.30L126.91 222.91L126.45 222.64L125.88 222.49L125.24 222.41L125.24 221.39L125.26 221.35ZM166.74 220.81L167.14 221.14L167.11 221.35L166.80 236.03L166.90 237.65L167.05 238.21L167.25 238.50L167.53 238.69L167.70 238.77L168.96 238.96L168.85 240L161.42 240L161.57 238.94L161.82 238.94L162.45 238.84L162.81 238.70L163.08 238.50L163.19 238.36L163.41 237.86L163.62 236.86L163.73 233.58L163.37 233.94L162.79 234.35Q162.68 234.25 162.65 234.10L162.81 234.00L163.33 233.56L163.42 233.42L163.56 233.08L163.52 232.86L163.42 232.73L163.08 232.59L162.87 232.55L162.61 232.55L158.61 234.14L157.62 234.37L157.16 234.39L157.02 234.50L155.27 237.35L155.15 237.74L155.11 238.05L155.15 238.38L155.23 238.56L155.50 238.77L155.87 238.90L156.54 238.94Q156.65 238.95 156.68 239.06L156.57 239.94L156.39 240L150.47 239.93L149.58 240L149.52 239.82L149.66 238.97L150.28 238.88L151.00 238.63L151.63 238.29L153.78 236.07L155.21 233.89L154.75 233.62L153.99 232.91L153.78 232.64L153.45 231.98L153.29 231.18L153.27 230.71L153.32 230.28L153.43 229.92L153.72 229.45L154.10 229.10L154.40 228.93L154.96 228.74L155.58 228.64L155.83 228.64L156.70 228.76L157.56 229.10L157.62 229.20L157.54 229.45L156.68 229.12L155.85 228.98L155.17 229.05L154.79 229.14L154.30 229.39L153.94 229.76L153.76 230.06L153.67 230.46L153.65 230.91L153.74 231.30L153.96 231.59L154.21 231.81L154.52 231.99L155.07 232.17L155.67 232.21L155.96 232.17L156.54 232.01L163.69 221.66L163.89 221.58L165.51 221.26Q166.55 220.90 166.74 220.81M159.58 230.57L159.76 230.55L161.17 230.05L161.53 230.03L162.19 230.13L162.75 230.33L163.23 230.61L163.62 230.98L163.77 231.03L163.96 223.91L159.58 230.57ZM168.72 221.35L176.96 221.35L177.02 221.39L177.02 222.58L176.28 222.66L175.81 222.83L175.61 222.98L175.52 223.20L175.48 223.50L175.49 223.79L176.00 224.96L178.19 228.15L180.88 224.37L181.09 223.90L181.15 223.63L181.13 223.33L181.03 223.10L180.88 222.93L180.43 222.71L179.88 222.59L179.44 222.58L179.44 221.39L186.29 221.35L186.29 222.58L186.12 222.58L185.55 222.68L184.81 222.93L184.20 223.31L182.43 225.19L179.28 229.61L179.23 229.72L179.30 229.80L185.82 240L185.77 240.05L188.57 243.84L189.40 244.67L189.81 244.94L190.29 245.10L190.49 245.10L190.73 245.01L190.89 244.81L191.03 244.34L191.17 244.13L191.34 243.99L191.61 243.93L191.84 243.99L192.05 244.11L192.23 244.28L192.50 244.67L192.59 244.90L192.63 245.46L192.52 245.74L192.36 245.93L192.17 246.07L191.69 246.24L191.17 246.20L190.37 246.05L187.44 245.01L186.58 244.55L186.02 244.13L177.11 232.56L177.00 232.53L173.73 237.27L173.60 237.79L173.58 238.10L173.62 238.40L173.71 238.62L173.93 238.76L174.16 238.85L174.43 238.91L175.25 238.98L175.25 240L175.21 240.03L170.06 239.93L168.54 240.03L168.43 240.02L168.43 239.14Q168.46 239.00 168.59 238.96L168.88 238.92L169.64 238.71L170.48 238.24L171.50 237.27L175.92 231.13L175.98 230.91L174.81 229.13L174.63 228.97L174.43 228.54L171.18 223.85L170.14 222.91L169.91 222.81L168.72 222.58L168.72 221.35ZM188.50 236.36L188.95 236.37L189.31 236.46L189.61 236.62L190.02 236.92L190.31 237.30L190.48 237.80L190.50 238.44L190.33 238.95L190.05 239.38L189.69 239.70L189.40 239.87L188.86 240L188.41 239.98L188.05 239.90L187.61 239.65L187.36 239.43L187.07 239.05L186.87 238.56L186.84 238.12L186.89 237.72L187.12 237.25L187.43 236.88L187.82 236.59L188.30 236.39L188.50 236.36ZM193.07 221.35L200.80 221.35L200.82 222.31Q200.80 222.41 200.69 222.43L200.02 222.47L199.44 222.62L199.14 222.81L199.03 222.93L198.87 223.26L198.78 223.64L198.69 224.51L198.69 236.78L198.83 237.84L199.05 238.35L199.27 238.60L199.42 238.69L199.97 238.88L200.64 238.94L200.82 238.99L200.82 239.96L200.64 239.98L193.12 240L193.07 239.81L193.07 239.08Q193.08 238.97 193.18 238.94L193.64 238.92L194.24 238.79L194.67 238.53L194.88 238.24L195.09 237.73L195.18 237.11L195.18 224.77L195.13 224.12L194.99 223.53L194.79 223.02L194.54 222.77L194.24 222.59L193.67 222.45L193.20 222.43Q193.10 222.42 193.07 222.31L193.07 221.35ZM202.91 221.41L207.93 221.45L208.20 221.41L208.35 221.55L219.59 234.48L219.63 234.27L219.57 224.43L219.42 223.71L219.25 223.30L219.01 222.96L218.64 222.73L218.21 222.58L217.34 222.49L217.34 221.43L217.42 221.41L223.48 221.41L223.52 221.67L223.52 222.49L222.62 222.52L222.37 222.58L222.18 222.68L221.88 222.95L221.65 223.30L221.57 223.51L221.44 224.26L221.29 240.12Q221.20 240.20 221.06 240.21L219.91 240.21L219.76 240.07L206.84 225.09L207.07 237.17L207.21 237.90L207.37 238.32L207.50 238.49L207.65 238.62L209.07 238.96L209.10 239.20L209.10 240.01L203.67 239.96L202.95 240.01L202.91 239.96L202.91 238.96L203.62 238.90L204.08 238.79L204.45 238.58L204.72 238.28L204.93 237.88L205.05 237.43L205.14 225.28L205.10 224.17L204.95 223.46L204.86 223.25L204.59 222.95L204.20 222.73L203.76 222.61L202.91 222.49L202.91 221.41ZM224.58 221.35L237.25 221.35L237.46 221.37L237.97 226.14L236.85 226.35L236.82 226.31L236.41 224.68L236.18 224.12L236.04 223.85L235.68 223.39L235.45 223.25L235.17 223.11L234.54 222.93L231.51 222.73L230.81 222.82L230.54 222.98L230.36 223.19L230.26 223.49L230.22 229.72L232.53 228.60L233.43 228.28L233.77 228.23L234.16 228.24L234.85 228.37L235.40 228.62L236.06 229.17L236.23 229.42L236.47 229.98L236.55 230.71L236.50 231.06L236.38 231.35L236.23 231.60L236.04 231.82L235.62 232.22L235.38 232.37L235.15 232.45L235.07 232.25L235.60 231.84L235.79 231.63L235.95 231.37L235.98 231.08L235.96 231.03L235.77 230.82L235.47 230.73L235.07 230.71L231.00 232.27L230.22 232.46L230.28 237.11L230.40 237.78L230.49 238.10L230.62 238.37L230.81 238.58L231.07 238.73L231.70 238.90L232.38 238.94L232.44 238.97L232.44 240L224.58 240L224.60 238.94L224.88 238.94L225.58 238.85L225.88 238.76L226.15 238.60L226.36 238.39L226.51 238.14L226.62 237.86L226.74 237.18L226.76 231.24L226.70 231.19L226.21 230.48L225.98 229.89L225.91 229.57L225.86 228.96L225.94 228.46L226.04 228.14L226.16 227.88L226.34 227.64L226.76 227.26L226.74 224.44L226.57 223.41L226.28 222.89L226.05 222.71L225.77 222.58L225.11 222.45L224.58 222.43L224.58 221.35M226.57 227.91L226.43 228.11L226.27 228.62L226.25 228.94L226.28 229.24L226.36 229.51L226.68 229.87L226.76 229.74L226.76 227.73L226.57 227.91ZM250.14 221.14L252.46 221.55L254.18 222.27L255.46 223.12L256.57 224.14L257.65 225.51L258.36 226.91L258.92 229.10L258.97 231.13L258.60 233.52L257.81 235.46L256.94 236.72L255.53 238.05L253.63 239.20L251.58 239.89L249.15 240.20L246.84 240.06L246.32 239.98L244.92 239.55L243.14 238.59L241.52 237.18L240.01 235.02L239.31 232.98L239.21 232.46L239.09 230.47L239.30 228.54L239.79 226.90L240.79 225.16L242.12 223.77L243.74 222.63L245.60 221.75L247.82 221.24L250.14 221.14M249.13 222.58L248.28 222.64L247.17 222.89L245.96 223.46L245.44 223.84L244.59 224.78L243.36 227.16L242.92 228.95L242.84 231.50L243.20 233.40L243.95 235.33L244.82 236.72L245.68 237.65L246.19 238.03L246.76 238.35L248.15 238.76L249.86 238.79L251.30 238.45L252.45 237.81L253.33 236.91L254.35 235.20L255.03 233.21L255.29 230.39L255.01 228.36L254.72 227.30L254.18 226.05L253.12 224.40L252.48 223.71L251.68 223.15L251.06 222.89L250.35 222.70L249.13 222.58Z" fill="#ffffff" style="fill: rgb(255, 255, 255);"></path></g></svg>