<svg xmlns="http://www.w3.org/2000/svg" version="1.1" xmlns:xlink="http://www.w3.org/1999/xlink" xmlns:svgjs="http://svgjs.com/svgjs" height="70.69999694824219" width="257.33001708984375"><defs id="SvgjsDefs1969"></defs><g id="SvgjsG1970" rel="mainfill" name="main_text" xmlns:name="main_text" transform="translate(-1.3700000047683716,-177.3000030517578)" fill="#000000"><path d="M6.42 209.88L11.61 209.88L11.61 190.49L6.42 190.49L6.42 209.88M1.37 185.30L11.61 185.30Q13.45 185.30 15.09 187.00Q16.73 188.71 16.73 190.49L16.73 209.88Q16.73 210.63 16.05 211.45Q15.37 212.27 14.41 212.68Q15.50 213.09 16.12 213.77Q16.73 214.46 16.73 215.62L16.73 234.95Q16.73 236.79 15.20 238.40Q13.66 240 11.75 240L1.37 240L1.37 185.30M6.42 234.95L11.61 234.95L11.61 214.94L6.42 214.94L6.42 234.95ZM34.69 185.30L34.69 234.95Q34.69 236.72 33.05 238.36Q31.42 240 29.57 240L24.38 240Q22.61 240 20.97 238.36Q19.33 236.72 19.33 234.95L19.33 185.30L24.38 185.30L24.38 234.95L29.57 234.95L29.57 185.30L34.69 185.30ZM40.29 185.43L43.64 185.43L43.64 187.96Q44.87 187.96 45.96 188.78Q47.06 189.60 47.06 190.49L47.06 193.56L43.64 193.56L43.64 190.49L40.16 190.49L40.29 193.56Q40.29 194.65 40.77 195.68Q41.05 196.29 41.73 197.18L45.89 201.82Q46.58 202.71 46.82 204.11Q47.06 205.51 47.06 207.97L47.06 212.41Q47.06 213.30 45.96 214.12Q44.87 214.94 43.64 214.94L43.64 217.87L40.29 217.87L40.29 214.94Q39.00 214.94 37.90 214.12Q36.81 213.30 36.81 212.41L36.81 208.79L40.29 208.79L40.16 212.41L43.64 212.41L43.64 206.88Q43.64 204.96 43.47 204.21Q43.30 203.46 42.55 202.51L38.25 197.86Q36.81 196.15 36.81 193.56L36.81 190.49Q36.81 189.67 37.87 188.81Q38.93 187.96 40.16 187.96L40.29 185.43ZM54.36 185.30L54.36 240L49.31 240L49.31 185.30L54.36 185.30ZM62.29 185.30L62.29 187.07Q63.92 185.98 64.40 185.77Q65.50 185.30 67.34 185.30Q69.59 185.30 71.03 186.66Q72.46 188.03 72.46 190.49L72.46 240L67.34 240L67.34 190.49L62.29 190.49L62.29 240L57.09 240L57.09 185.30L62.29 185.30ZM75.06 240L75.06 185.30L88.65 185.30L88.65 190.49L80.11 190.49L80.11 209.88L87.62 209.88L87.62 214.94L80.11 214.94L80.11 234.95L88.65 234.95L88.65 240L75.06 240ZM92.54 205.31Q91.31 203.33 90.80 201.28Q90.29 199.23 90.29 196.77L90.29 190.62Q90.29 188.85 91.93 187.07Q93.56 185.30 95.34 185.30L100.53 185.30Q102.37 185.30 104.01 187.00Q105.65 188.71 105.65 190.49L105.65 196.77L100.53 196.77L100.53 190.49L95.34 190.49L95.34 196.77Q95.34 198.95 96.16 201.07Q96.71 202.51 97.73 204.14L104.01 213.43Q105.31 215.48 105.58 219.99Q105.65 221.15 105.65 225.73L105.65 234.95Q105.65 236.72 104.01 238.36Q102.37 240 100.53 240L95.34 240Q93.56 240 91.93 238.36Q90.29 236.72 90.29 234.95L90.29 227.43L95.34 227.43L95.34 234.95L100.53 234.95L100.53 225.73Q100.53 220.54 100.29 218.66Q100.05 216.78 98.82 214.94L92.54 205.31L92.54 205.31ZM110.16 205.31Q108.93 203.33 108.42 201.28Q107.91 199.23 107.91 196.77L107.91 190.62Q107.91 188.85 109.55 187.07Q111.18 185.30 112.96 185.30L118.15 185.30Q119.99 185.30 121.63 187.00Q123.27 188.71 123.27 190.49L123.27 196.77L118.15 196.77L118.15 190.49L112.96 190.49L112.96 196.77Q112.96 198.95 113.78 201.07Q114.33 202.51 115.35 204.14L121.63 213.43Q122.93 215.48 123.20 219.99Q123.27 221.15 123.27 225.73L123.27 234.95Q123.27 236.72 121.63 238.36Q119.99 240 118.15 240L112.96 240Q111.18 240 109.55 238.36Q107.91 236.72 107.91 234.95L107.91 227.43L112.96 227.43L112.96 234.95L118.15 234.95L118.15 225.73Q118.15 220.54 117.91 218.66Q117.67 216.78 116.44 214.94L110.16 205.31L110.16 205.31ZM125.73 190.49Q125.73 188.03 127.17 186.66Q128.60 185.30 130.79 185.30L135.98 185.30Q137.21 185.30 137.89 186.05Q138.30 186.46 138.78 187.55Q139.05 187.07 139.46 186.05Q140.01 185.30 141.10 185.30L146.29 185.30Q148.54 185.30 149.94 186.63Q151.34 187.96 151.34 190.49L151.34 240L146.29 240L146.29 190.49L141.10 190.49L141.10 240L135.98 240L135.98 190.49L130.79 190.49L130.79 240L125.73 240L125.73 190.49ZM159.06 209.88L164.25 209.88L164.25 190.49L159.06 190.49L159.06 209.88M164.25 185.30Q166.09 185.30 167.73 187.00Q169.37 188.71 169.37 190.49L169.37 240L164.25 240L164.25 214.94L159.06 214.94L159.06 240L154.01 240L154.01 190.49Q154.01 188.71 155.64 187.00Q157.28 185.30 159.06 185.30L164.25 185.30ZM176.82 185.30L182.01 207.08L187.13 185.30L192.32 185.30L185.35 212.27L192.32 240L187.13 240L182.01 218.42L176.82 240L171.76 240L179.07 212.14L171.76 185.30L176.82 185.30ZM194.71 234.95L199.76 234.95L199.76 240L194.71 240L194.71 234.95ZM207.62 185.30L207.62 240L202.56 240L202.56 185.30L207.62 185.30ZM215.54 185.30L215.54 187.07Q217.18 185.98 217.66 185.77Q218.75 185.30 220.59 185.30Q222.85 185.30 224.28 186.66Q225.72 188.03 225.72 190.49L225.72 240L220.59 240L220.59 190.49L215.54 190.49L215.54 240L210.35 240L210.35 185.30L215.54 185.30ZM228.31 240L228.31 185.30L241.90 185.30L241.90 190.49L233.36 190.49L233.36 209.88L240.88 209.88L240.88 214.94L233.36 214.94L233.36 240L228.31 240ZM248.39 234.95L253.58 234.95L253.58 190.49L248.39 190.49L248.39 234.95M253.58 185.30Q255.42 185.30 257.06 187.00Q258.70 188.71 258.70 190.49L258.70 234.95Q258.70 236.72 257.06 238.36Q255.42 240 253.58 240L248.39 240Q246.61 240 244.98 238.36Q243.34 236.72 243.34 234.95L243.34 190.49Q243.34 188.71 244.98 187.00Q246.61 185.30 248.39 185.30L253.58 185.30Z" fill="#000000" style="fill: rgb(0, 0, 0);"></path></g></svg>